<?xml version="1.0" encoding="UTF-8" standalone="no"?>
<!DOCTYPE svg PUBLIC "-//W3C//DTD SVG 1.1//EN"
 "http://www.w3.org/Graphics/SVG/1.1/DTD/svg11.dtd">
<!-- Generated by graphviz version 12.2.0 (20241103.1931)
 -->
<!-- Title: G Pages: 1 -->
<svg width="457pt" height="364pt"
 viewBox="0.00 0.00 457.00 364.00" xmlns="http://www.w3.org/2000/svg" xmlns:xlink="http://www.w3.org/1999/xlink">
<g id="graph0" class="graph" transform="scale(1 1) rotate(0) translate(4 360)">
<title>G</title>
<polygon fill="white" stroke="none" points="-4,4 -4,-360 453,-360 453,4 -4,4"/>
<g id="clust1" class="cluster">
<title>cluster_0</title>
</g>
<g id="clust2" class="cluster">
<title>cluster_1</title>
</g>
<g id="clust3" class="cluster">
<title>cluster_2</title>
</g>
<g id="clust4" class="cluster">
<title>cluster_3</title>
</g>
<g id="clust5" class="cluster">
<title>cluster_4</title>
</g>
<!-- OS -->
<g id="node1" class="node">
<title>OS</title>
<polygon fill="none" stroke="black" points="221.12,-124 106.88,-124 106.88,-88 221.12,-88 221.12,-124"/>
<text text-anchor="middle" x="164" y="-100.95" font-family="Times,serif" font-size="14.00">Operating System</text>
</g>
<!-- Net -->
<g id="node2" class="node">
<title>Net</title>
<polygon fill="none" stroke="black" points="285.62,-124 222.38,-124 222.38,-88 285.62,-88 285.62,-124"/>
<text text-anchor="middle" x="254" y="-100.95" font-family="Times,serif" font-size="14.00">Network</text>
</g>
<!-- AI -->
<g id="node8" class="node">
<title>AI</title>
<polygon fill="green" stroke="green" points="339,-52 285,-52 285,-16 339,-16 339,-52"/>
<text text-anchor="middle" x="312" y="-28.95" font-family="Times,serif" font-size="14.00">AI</text>
</g>
<!-- Net&#45;&gt;AI -->
<!-- Auth -->
<g id="node3" class="node">
<title>Auth</title>
<polygon fill="none" stroke="black" points="281,-196 227,-196 227,-160 281,-160 281,-196"/>
<text text-anchor="middle" x="254" y="-172.95" font-family="Times,serif" font-size="14.00">Auth</text>
</g>
<!-- Auth&#45;&gt;Net -->
<g id="edge12" class="edge">
<title>Auth&#45;&gt;Net</title>
<path fill="none" stroke="blue" stroke-width="3" d="M254,-159.7C254,-148.85 254,-134.92 254,-124.1"/>
</g>
<!-- Auth&#45;&gt;AI -->
<!-- DB -->
<g id="node4" class="node">
<title>DB</title>
<polygon fill="none" stroke="black" points="225.75,-196 160.25,-196 160.25,-160 225.75,-160 225.75,-196"/>
<text text-anchor="middle" x="193" y="-172.95" font-family="Times,serif" font-size="14.00">Database</text>
</g>
<!-- DB&#45;&gt;OS -->
<g id="edge13" class="edge">
<title>DB&#45;&gt;OS</title>
<path fill="none" stroke="blue" stroke-width="3" d="M185.83,-159.7C181.34,-148.85 175.57,-134.92 171.09,-124.1"/>
</g>
<!-- DB&#45;&gt;AI -->
<!-- FS -->
<g id="node5" class="node">
<title>FS</title>
<polygon fill="none" stroke="black" points="97.62,-196 16.38,-196 16.38,-160 97.62,-160 97.62,-196"/>
<text text-anchor="middle" x="57" y="-172.95" font-family="Times,serif" font-size="14.00">File System</text>
</g>
<!-- FS&#45;&gt;OS -->
<g id="edge14" class="edge">
<title>FS&#45;&gt;OS</title>
<path fill="none" stroke="blue" stroke-width="3" d="M83.72,-159.52C100.19,-148.74 121.21,-134.99 137.62,-124.26"/>
</g>
<!-- FS&#45;&gt;AI -->
<!-- Cache -->
<g id="node6" class="node">
<title>Cache</title>
<polygon fill="none" stroke="black" points="159.5,-196 98.5,-196 98.5,-160 159.5,-160 159.5,-196"/>
<text text-anchor="middle" x="129" y="-172.95" font-family="Times,serif" font-size="14.00">Caching</text>
</g>
<!-- Cache&#45;&gt;OS -->
<g id="edge15" class="edge">
<title>Cache&#45;&gt;OS</title>
<path fill="none" stroke="blue" stroke-width="3" d="M137.65,-159.7C143.08,-148.85 150.04,-134.92 155.45,-124.1"/>
</g>
<!-- Cache&#45;&gt;AI -->
<!-- Msg -->
<g id="node7" class="node">
<title>Msg</title>
<polygon fill="none" stroke="black" points="357.62,-196 282.38,-196 282.38,-160 357.62,-160 357.62,-196"/>
<text text-anchor="middle" x="320" y="-172.95" font-family="Times,serif" font-size="14.00">Messaging</text>
</g>
<!-- Msg&#45;&gt;Net -->
<g id="edge11" class="edge">
<title>Msg&#45;&gt;Net</title>
<path fill="none" stroke="blue" stroke-width="3" d="M303.69,-159.7C293.46,-148.85 280.32,-134.92 270.13,-124.1"/>
</g>
<!-- Msg&#45;&gt;AI -->
<!-- UM -->
<g id="node9" class="node">
<title>UM</title>
<polygon fill="none" stroke="black" points="432.62,-268 315.38,-268 315.38,-232 432.62,-232 432.62,-268"/>
<text text-anchor="middle" x="374" y="-244.95" font-family="Times,serif" font-size="14.00">User Management</text>
</g>
<!-- UM&#45;&gt;Auth -->
<g id="edge5" class="edge">
<title>UM&#45;&gt;Auth</title>
<path fill="none" stroke="blue" stroke-width="3" d="M335.35,-231.65C319.34,-223.92 300.85,-214.24 285,-204 281.4,-201.67 277.72,-199.01 274.22,-196.3"/>
</g>
<!-- UM&#45;&gt;AI -->
<!-- BL -->
<g id="node10" class="node">
<title>BL</title>
<polygon fill="none" stroke="black" points="242.62,-268 143.38,-268 143.38,-232 242.62,-232 242.62,-268"/>
<text text-anchor="middle" x="193" y="-244.95" font-family="Times,serif" font-size="14.00">Business Logic</text>
</g>
<!-- BL&#45;&gt;DB -->
<g id="edge6" class="edge">
<title>BL&#45;&gt;DB</title>
<path fill="none" stroke="blue" stroke-width="3" d="M193,-231.7C193,-220.85 193,-206.92 193,-196.1"/>
</g>
<!-- BL&#45;&gt;FS -->
<g id="edge7" class="edge">
<title>BL&#45;&gt;FS</title>
<path fill="none" stroke="blue" stroke-width="3" d="M156.93,-231.65C140.13,-223.45 119.95,-213.42 102,-204 97.41,-201.59 92.59,-198.99 87.88,-196.41"/>
</g>
<!-- BL&#45;&gt;Cache -->
<g id="edge8" class="edge">
<title>BL&#45;&gt;Cache</title>
<path fill="none" stroke="blue" stroke-width="3" d="M177.18,-231.7C167.26,-220.85 154.52,-206.92 144.64,-196.1"/>
</g>
<!-- BL&#45;&gt;AI -->
<!-- WF -->
<g id="node11" class="node">
<title>WF</title>
<polygon fill="none" stroke="black" points="314.75,-268 243.25,-268 243.25,-232 314.75,-232 314.75,-268"/>
<text text-anchor="middle" x="279" y="-244.95" font-family="Times,serif" font-size="14.00">Workflow</text>
</g>
<!-- WF&#45;&gt;DB -->
<g id="edge9" class="edge">
<title>WF&#45;&gt;DB</title>
<path fill="none" stroke="blue" stroke-width="3" d="M257.74,-231.7C244.51,-220.93 227.55,-207.12 214.31,-196.35"/>
</g>
<!-- WF&#45;&gt;Msg -->
<g id="edge10" class="edge">
<title>WF&#45;&gt;Msg</title>
<path fill="none" stroke="blue" stroke-width="3" d="M289.13,-231.7C295.49,-220.85 303.65,-206.92 309.98,-196.1"/>
</g>
<!-- WF&#45;&gt;AI -->
<!-- Web -->
<g id="node12" class="node">
<title>Web</title>
<polygon fill="none" stroke="black" points="319,-340 265,-340 265,-304 319,-304 319,-340"/>
<text text-anchor="middle" x="292" y="-316.95" font-family="Times,serif" font-size="14.00">Web</text>
</g>
<!-- Web&#45;&gt;UM -->
<g id="edge1" class="edge">
<title>Web&#45;&gt;UM</title>
<path fill="none" stroke="blue" stroke-width="3" d="M312.27,-303.7C324.89,-292.93 341.05,-279.12 353.68,-268.35"/>
</g>
<!-- Web&#45;&gt;BL -->
<g id="edge2" class="edge">
<title>Web&#45;&gt;BL</title>
<path fill="none" stroke="blue" stroke-width="3" d="M270.86,-303.52C267.6,-300.95 264.24,-298.37 261,-296 247.98,-286.47 233.07,-276.5 220.53,-268.38"/>
</g>
<!-- Mobile -->
<g id="node13" class="node">
<title>Mobile</title>
<polygon fill="none" stroke="black" points="263.88,-340 208.12,-340 208.12,-304 263.88,-304 263.88,-340"/>
<text text-anchor="middle" x="236" y="-316.95" font-family="Times,serif" font-size="14.00">Mobile</text>
</g>
<!-- Mobile&#45;&gt;BL -->
<g id="edge3" class="edge">
<title>Mobile&#45;&gt;BL</title>
<path fill="none" stroke="blue" stroke-width="3" d="M225.37,-303.7C218.71,-292.85 210.15,-278.92 203.51,-268.1"/>
</g>
<!-- Mobile&#45;&gt;WF -->
<g id="edge4" class="edge">
<title>Mobile&#45;&gt;WF</title>
<path fill="none" stroke="blue" stroke-width="3" d="M246.63,-303.7C253.29,-292.85 261.85,-278.92 268.49,-268.1"/>
</g>
</g>
</svg>
