<?xml version="1.0" encoding="UTF-8" standalone="no"?>
<!DOCTYPE svg PUBLIC "-//W3C//DTD SVG 1.1//EN"
 "http://www.w3.org/Graphics/SVG/1.1/DTD/svg11.dtd">
<!-- Generated by graphviz version 12.2.0 (20241103.1931)
 -->
<!-- Title: G Pages: 1 -->
<svg width="398pt" height="292pt"
 viewBox="0.00 0.00 398.00 292.00" xmlns="http://www.w3.org/2000/svg" xmlns:xlink="http://www.w3.org/1999/xlink">
<g id="graph0" class="graph" transform="scale(1 1) rotate(0) translate(4 288)">
<title>G</title>
<polygon fill="white" stroke="none" points="-4,4 -4,-288 394,-288 394,4 -4,4"/>
<g id="clust1" class="cluster">
<title>cluster_0</title>
</g>
<g id="clust2" class="cluster">
<title>cluster_1</title>
</g>
<g id="clust3" class="cluster">
<title>cluster_3</title>
</g>
<g id="clust4" class="cluster">
<title>cluster_4</title>
</g>
<!-- OS -->
<g id="node1" class="node">
<title>OS</title>
<polygon fill="none" stroke="black" points="231.12,-52 116.88,-52 116.88,-16 231.12,-16 231.12,-52"/>
<text text-anchor="middle" x="174" y="-28.95" font-family="Times,serif" font-size="14.00">Operating System</text>
</g>
<!-- Net -->
<g id="node2" class="node">
<title>Net</title>
<polygon fill="none" stroke="black" points="295.62,-52 232.38,-52 232.38,-16 295.62,-16 295.62,-52"/>
<text text-anchor="middle" x="264" y="-28.95" font-family="Times,serif" font-size="14.00">Network</text>
</g>
<!-- Auth -->
<g id="node3" class="node">
<title>Auth</title>
<polygon fill="none" stroke="black" points="357,-124 303,-124 303,-88 357,-88 357,-124"/>
<text text-anchor="middle" x="330" y="-100.95" font-family="Times,serif" font-size="14.00">Auth</text>
</g>
<!-- Auth&#45;&gt;Net -->
<g id="edge12" class="edge">
<title>Auth&#45;&gt;Net</title>
<path fill="none" stroke="blue" d="M313.69,-87.7C303.46,-76.85 290.32,-62.92 280.13,-52.1"/>
</g>
<!-- DB -->
<g id="node4" class="node">
<title>DB</title>
<polygon fill="none" stroke="black" points="225.75,-124 160.25,-124 160.25,-88 225.75,-88 225.75,-124"/>
<text text-anchor="middle" x="193" y="-100.95" font-family="Times,serif" font-size="14.00">Database</text>
</g>
<!-- DB&#45;&gt;OS -->
<g id="edge13" class="edge">
<title>DB&#45;&gt;OS</title>
<path fill="none" stroke="blue" d="M188.3,-87.7C185.36,-76.85 181.58,-62.92 178.64,-52.1"/>
</g>
<!-- FS -->
<g id="node5" class="node">
<title>FS</title>
<polygon fill="none" stroke="black" points="159.62,-124 78.38,-124 78.38,-88 159.62,-88 159.62,-124"/>
<text text-anchor="middle" x="119" y="-100.95" font-family="Times,serif" font-size="14.00">File System</text>
</g>
<!-- FS&#45;&gt;OS -->
<g id="edge14" class="edge">
<title>FS&#45;&gt;OS</title>
<path fill="none" stroke="blue" d="M132.6,-87.7C141.12,-76.85 152.07,-62.92 160.56,-52.1"/>
</g>
<!-- Cache -->
<g id="node6" class="node">
<title>Cache</title>
<polygon fill="none" stroke="black" points="77.5,-124 16.5,-124 16.5,-88 77.5,-88 77.5,-124"/>
<text text-anchor="middle" x="47" y="-100.95" font-family="Times,serif" font-size="14.00">Caching</text>
</g>
<!-- Cache&#45;&gt;OS -->
<g id="edge15" class="edge">
<title>Cache&#45;&gt;OS</title>
<path fill="none" stroke="blue" d="M70.37,-87.51C74.18,-84.89 78.15,-82.29 82,-80 98.8,-69.98 118.15,-60.27 134.75,-52.44"/>
</g>
<!-- Msg -->
<g id="node7" class="node">
<title>Msg</title>
<polygon fill="none" stroke="black" points="301.62,-124 226.38,-124 226.38,-88 301.62,-88 301.62,-124"/>
<text text-anchor="middle" x="264" y="-100.95" font-family="Times,serif" font-size="14.00">Messaging</text>
</g>
<!-- Msg&#45;&gt;Net -->
<g id="edge11" class="edge">
<title>Msg&#45;&gt;Net</title>
<path fill="none" stroke="blue" d="M264,-87.7C264,-76.85 264,-62.92 264,-52.1"/>
</g>
<!-- UM -->
<g id="node8" class="node">
<title>UM</title>
<polygon fill="none" stroke="black" points="373.62,-196 256.38,-196 256.38,-160 373.62,-160 373.62,-196"/>
<text text-anchor="middle" x="315" y="-172.95" font-family="Times,serif" font-size="14.00">User Management</text>
</g>
<!-- UM&#45;&gt;Auth -->
<g id="edge5" class="edge">
<title>UM&#45;&gt;Auth</title>
<path fill="none" stroke="blue" d="M318.71,-159.7C321.03,-148.85 324.02,-134.92 326.33,-124.1"/>
</g>
<!-- BL -->
<g id="node9" class="node">
<title>BL</title>
<polygon fill="none" stroke="black" points="183.62,-196 84.38,-196 84.38,-160 183.62,-160 183.62,-196"/>
<text text-anchor="middle" x="134" y="-172.95" font-family="Times,serif" font-size="14.00">Business Logic</text>
</g>
<!-- BL&#45;&gt;DB -->
<g id="edge6" class="edge">
<title>BL&#45;&gt;DB</title>
<path fill="none" stroke="blue" d="M148.58,-159.7C157.73,-148.85 169.47,-134.92 178.58,-124.1"/>
</g>
<!-- BL&#45;&gt;FS -->
<g id="edge7" class="edge">
<title>BL&#45;&gt;FS</title>
<path fill="none" stroke="blue" d="M130.29,-159.7C127.97,-148.85 124.98,-134.92 122.67,-124.1"/>
</g>
<!-- BL&#45;&gt;Cache -->
<g id="edge8" class="edge">
<title>BL&#45;&gt;Cache</title>
<path fill="none" stroke="blue" d="M112.49,-159.7C99.11,-148.93 81.95,-135.12 68.56,-124.35"/>
</g>
<!-- WF -->
<g id="node10" class="node">
<title>WF</title>
<polygon fill="none" stroke="black" points="255.75,-196 184.25,-196 184.25,-160 255.75,-160 255.75,-196"/>
<text text-anchor="middle" x="220" y="-172.95" font-family="Times,serif" font-size="14.00">Workflow</text>
</g>
<!-- WF&#45;&gt;DB -->
<g id="edge9" class="edge">
<title>WF&#45;&gt;DB</title>
<path fill="none" stroke="blue" d="M213.33,-159.7C209.14,-148.85 203.77,-134.92 199.6,-124.1"/>
</g>
<!-- WF&#45;&gt;Msg -->
<g id="edge10" class="edge">
<title>WF&#45;&gt;Msg</title>
<path fill="none" stroke="blue" d="M230.88,-159.7C237.7,-148.85 246.45,-134.92 253.25,-124.1"/>
</g>
<!-- Web -->
<g id="node11" class="node">
<title>Web</title>
<polygon fill="none" stroke="black" points="260,-268 206,-268 206,-232 260,-232 260,-268"/>
<text text-anchor="middle" x="233" y="-244.95" font-family="Times,serif" font-size="14.00">Web</text>
</g>
<!-- Web&#45;&gt;UM -->
<g id="edge1" class="edge">
<title>Web&#45;&gt;UM</title>
<path fill="none" stroke="blue" d="M253.27,-231.7C265.89,-220.93 282.05,-207.12 294.68,-196.35"/>
</g>
<!-- Web&#45;&gt;BL -->
<g id="edge2" class="edge">
<title>Web&#45;&gt;BL</title>
<path fill="none" stroke="blue" d="M211.86,-231.52C208.6,-228.95 205.24,-226.37 202,-224 188.98,-214.47 174.07,-204.5 161.53,-196.38"/>
</g>
<!-- Mobile -->
<g id="node12" class="node">
<title>Mobile</title>
<polygon fill="none" stroke="black" points="204.88,-268 149.12,-268 149.12,-232 204.88,-232 204.88,-268"/>
<text text-anchor="middle" x="177" y="-244.95" font-family="Times,serif" font-size="14.00">Mobile</text>
</g>
<!-- Mobile&#45;&gt;BL -->
<g id="edge3" class="edge">
<title>Mobile&#45;&gt;BL</title>
<path fill="none" stroke="blue" d="M166.37,-231.7C159.71,-220.85 151.15,-206.92 144.51,-196.1"/>
</g>
<!-- Mobile&#45;&gt;WF -->
<g id="edge4" class="edge">
<title>Mobile&#45;&gt;WF</title>
<path fill="none" stroke="blue" d="M187.63,-231.7C194.29,-220.85 202.85,-206.92 209.49,-196.1"/>
</g>
</g>
</svg>
