<?xml version="1.0" encoding="UTF-8" standalone="no"?>
<!DOCTYPE svg PUBLIC "-//W3C//DTD SVG 1.1//EN"
 "http://www.w3.org/Graphics/SVG/1.1/DTD/svg11.dtd">
<!-- Generated by graphviz version 12.2.0 (20241103.1931)
 -->
<!-- Title: G Pages: 1 -->
<svg width="457pt" height="364pt"
 viewBox="0.00 0.00 457.00 364.00" xmlns="http://www.w3.org/2000/svg" xmlns:xlink="http://www.w3.org/1999/xlink">
<g id="graph0" class="graph" transform="scale(1 1) rotate(0) translate(4 360)">
<title>G</title>
<polygon fill="white" stroke="none" points="-4,4 -4,-360 453,-360 453,4 -4,4"/>
<g id="clust1" class="cluster">
<title>cluster_0</title>
</g>
<g id="clust2" class="cluster">
<title>cluster_1</title>
</g>
<g id="clust3" class="cluster">
<title>cluster_2</title>
</g>
<g id="clust4" class="cluster">
<title>cluster_3</title>
</g>
<g id="clust5" class="cluster">
<title>cluster_4</title>
</g>
<!-- OS -->
<g id="node1" class="node">
<title>OS</title>
<polygon fill="none" stroke="black" points="221.12,-124 106.88,-124 106.88,-88 221.12,-88 221.12,-124"/>
<text text-anchor="middle" x="164" y="-100.95" font-family="Times,serif" font-size="14.00">Operating System</text>
</g>
<!-- Net -->
<g id="node2" class="node">
<title>Net</title>
<polygon fill="none" stroke="black" points="285.62,-124 222.38,-124 222.38,-88 285.62,-88 285.62,-124"/>
<text text-anchor="middle" x="254" y="-100.95" font-family="Times,serif" font-size="14.00">Network</text>
</g>
<!-- AI -->
<g id="node8" class="node">
<title>AI</title>
<text text-anchor="middle" x="312" y="-28.95" font-family="Times,serif" font-size="14.00" fill="#fffffe" fill-opacity="0.000000">AI</text>
</g>
<!-- Net&#45;&gt;AI -->
<!-- Auth -->
<g id="node3" class="node">
<title>Auth</title>
<polygon fill="none" stroke="black" points="281,-196 227,-196 227,-160 281,-160 281,-196"/>
<text text-anchor="middle" x="254" y="-172.95" font-family="Times,serif" font-size="14.00">Auth</text>
</g>
<!-- Auth&#45;&gt;Net -->
<!-- Auth&#45;&gt;AI -->
<!-- DB -->
<g id="node4" class="node">
<title>DB</title>
<polygon fill="none" stroke="black" points="225.75,-196 160.25,-196 160.25,-160 225.75,-160 225.75,-196"/>
<text text-anchor="middle" x="193" y="-172.95" font-family="Times,serif" font-size="14.00">Database</text>
</g>
<!-- DB&#45;&gt;OS -->
<!-- DB&#45;&gt;AI -->
<!-- FS -->
<g id="node5" class="node">
<title>FS</title>
<polygon fill="none" stroke="black" points="97.62,-196 16.38,-196 16.38,-160 97.62,-160 97.62,-196"/>
<text text-anchor="middle" x="57" y="-172.95" font-family="Times,serif" font-size="14.00">File System</text>
</g>
<!-- FS&#45;&gt;OS -->
<!-- FS&#45;&gt;AI -->
<!-- Cache -->
<g id="node6" class="node">
<title>Cache</title>
<polygon fill="none" stroke="black" points="159.5,-196 98.5,-196 98.5,-160 159.5,-160 159.5,-196"/>
<text text-anchor="middle" x="129" y="-172.95" font-family="Times,serif" font-size="14.00">Caching</text>
</g>
<!-- Cache&#45;&gt;OS -->
<!-- Cache&#45;&gt;AI -->
<!-- Msg -->
<g id="node7" class="node">
<title>Msg</title>
<polygon fill="none" stroke="black" points="357.62,-196 282.38,-196 282.38,-160 357.62,-160 357.62,-196"/>
<text text-anchor="middle" x="320" y="-172.95" font-family="Times,serif" font-size="14.00">Messaging</text>
</g>
<!-- Msg&#45;&gt;Net -->
<!-- Msg&#45;&gt;AI -->
<!-- UM -->
<g id="node9" class="node">
<title>UM</title>
<polygon fill="none" stroke="black" points="432.62,-268 315.38,-268 315.38,-232 432.62,-232 432.62,-268"/>
<text text-anchor="middle" x="374" y="-244.95" font-family="Times,serif" font-size="14.00">User Management</text>
</g>
<!-- UM&#45;&gt;Auth -->
<!-- UM&#45;&gt;AI -->
<!-- BL -->
<g id="node10" class="node">
<title>BL</title>
<polygon fill="none" stroke="black" points="242.62,-268 143.38,-268 143.38,-232 242.62,-232 242.62,-268"/>
<text text-anchor="middle" x="193" y="-244.95" font-family="Times,serif" font-size="14.00">Business Logic</text>
</g>
<!-- BL&#45;&gt;DB -->
<!-- BL&#45;&gt;FS -->
<!-- BL&#45;&gt;Cache -->
<!-- BL&#45;&gt;AI -->
<!-- WF -->
<g id="node11" class="node">
<title>WF</title>
<polygon fill="none" stroke="black" points="314.75,-268 243.25,-268 243.25,-232 314.75,-232 314.75,-268"/>
<text text-anchor="middle" x="279" y="-244.95" font-family="Times,serif" font-size="14.00">Workflow</text>
</g>
<!-- WF&#45;&gt;DB -->
<!-- WF&#45;&gt;Msg -->
<!-- WF&#45;&gt;AI -->
<!-- Web -->
<g id="node12" class="node">
<title>Web</title>
<polygon fill="none" stroke="black" points="319,-340 265,-340 265,-304 319,-304 319,-340"/>
<text text-anchor="middle" x="292" y="-316.95" font-family="Times,serif" font-size="14.00">Web</text>
</g>
<!-- Web&#45;&gt;UM -->
<!-- Web&#45;&gt;BL -->
<!-- Mobile -->
<g id="node13" class="node">
<title>Mobile</title>
<polygon fill="none" stroke="black" points="263.88,-340 208.12,-340 208.12,-304 263.88,-304 263.88,-340"/>
<text text-anchor="middle" x="236" y="-316.95" font-family="Times,serif" font-size="14.00">Mobile</text>
</g>
<!-- Mobile&#45;&gt;BL -->
<!-- Mobile&#45;&gt;WF -->
</g>
</svg>
